# xmcd
#
# Track frame offsets:
# 150
# 21057
# 51257
# 69840
# 93890
# 127330
# 141982
# 176242
# 198155
# 226545
# 249272
# 279010
#
# Disc length: 3960 seconds
#
# Revision: 0
# Processed by: cddbd v1.4PL0 Copyright (c) Steve Scherf et al.
# Submitted via: Axialis_AX_CDPlayer 2.6
#
DISCID=9b0f760c
DTITLE=Michael Coleman - Do your thing
DYEAR=1900
DGENRE=
TTITLE0=The Train
TTITLE1=Help Me
TTITLE2=Message Of Love
TTITLE3=Cold, Cold Feeling
TTITLE4=Do Your Thing
TTITLE5=Messin' With The Kid
TTITLE6=You Don't Have To Go
TTITLE7=Black Magic Women
TTITLE8=Let's Straighten It Out
TTITLE9=Dock Of The Bay
TTITLE10=Tin Pan Alley
TTITLE11=Breakfast In Bed
EXTD=
EXTT0=
EXTT1=
EXTT2=
EXTT3=
EXTT4=
EXTT5=
EXTT6=
EXTT7=
EXTT8=
EXTT9=
EXTT10=
EXTT11=
PLAYORDER=
